<svg xmlns="http://www.w3.org/2000/svg" viewBox="0 0 512 512" enable-background="new 0 0 512 512"><path d="M0 0h512v512h-512v-512z" fill="none"/><path d="M248.6 284.6c2.1 2.1 4.6 3.2 7.4 3.2s5.3-1.1 7.4-3.2l149.9-149.9c2.1-2.1 3.2-4.6 3.2-7.4 0-2.8-1.1-5.3-3.2-7.4l-16.1-16.1c-2.1-2.1-4.6-3.2-7.4-3.2-2.8 0-5.3 1.1-7.4 3.2l-126.4 126.5-126.4-126.4c-2.1-2.1-4.6-3.2-7.4-3.2-2.8 0-5.3 1.1-7.4 3.2l-16.1 16.1c-2.1 2.1-3.2 4.6-3.2 7.4s1.1 5.3 3.2 7.4l149.9 149.8zm148.6-57.2c-2.1-2.1-4.6-3.2-7.4-3.2-2.8 0-5.3 1.1-7.4 3.2l-126.4 126.4-126.4-126.4c-2.1-2.1-4.6-3.2-7.4-3.2-2.8 0-5.3 1.1-7.4 3.2l-16.1 16.1c-2.1 2.1-3.2 4.6-3.2 7.4 0 2.8 1.1 5.3 3.2 7.4l149.9 149.9c2.1 2.1 4.6 3.2 7.4 3.2s5.3-1.1 7.4-3.2l149.9-149.9c2.1-2.1 3.2-4.6 3.2-7.4 0-2.8-1.1-5.3-3.2-7.4l-16.1-16.1z" fill="#fff"/></svg>